<svg xmlns="http://www.w3.org/2000/svg" width="256" height="256" viewBox="0 0 100 100"><path d="M29.88 60.96L29.88 60.96Q29.88 68.16 25.88 71.64Q21.88 75.12 15.32 75.12L15.32 75.12Q10.92 75.12 8.36 73.80Q5.80 72.48 5.80 69.52L5.80 69.52Q5.80 68.16 6.24 67.20Q6.68 66.24 7.24 65.60L7.24 65.60Q8.60 66 9.96 66.32Q11.32 66.64 12.92 66.64L12.92 66.64Q19.48 66.64 19.48 59.84L19.48 59.84L19.48 25.52Q20.20 25.36 21.56 25.12Q22.92 24.88 24.28 24.88L24.28 24.88Q27.16 24.88 28.52 25.92Q29.88 26.96 29.88 29.76L29.88 29.76L29.88 60.96ZM72.68 61.84L72.68 61.84Q71.88 62.48 70.60 62.88Q69.32 63.28 67.64 63.28L67.64 63.28Q65.56 63.28 64.16 62.76Q62.76 62.24 62.20 60.88L62.20 60.88Q58.92 52.72 56.68 46.96Q54.44 41.20 53.08 37.12L53.08 37.12L52.68 37.12Q52.44 42.48 52.24 46.96Q52.04 51.44 51.88 55.72Q51.72 60 51.52 64.40Q51.32 68.80 51 73.92L51 73.92Q50.20 74.16 49 74.40Q47.80 74.64 46.44 74.64L46.44 74.64Q41.08 74.64 41.08 70.64L41.08 70.64Q41.08 69.36 41.20 66.68Q41.32 64 41.52 60.44Q41.72 56.88 42.00 52.64Q42.28 48.40 42.56 44.08Q42.84 39.76 43.16 35.56Q43.48 31.36 43.72 27.76L43.72 27.76Q44.36 26.96 46.08 26.12Q47.80 25.28 50.52 25.28L50.52 25.28Q53.56 25.28 55.44 26.28Q57.32 27.28 58.28 29.60L58.28 29.60Q59.32 32.08 60.48 35.04Q61.64 38 62.84 41.12Q64.04 44.24 65.20 47.24Q66.36 50.24 67.40 52.88L67.40 52.88L67.72 52.88Q70.44 45.36 73.12 38.32Q75.80 31.28 77.80 26.40L77.80 26.40Q78.76 25.92 80.28 25.60Q81.80 25.28 83.40 25.28L83.40 25.28Q86.36 25.28 88.12 26.16Q89.88 27.04 90.28 28.80L90.28 28.80Q90.60 30.32 91 33.64Q91.40 36.96 91.80 41.20Q92.20 45.44 92.60 50.24Q93 55.04 93.32 59.48Q93.64 63.92 93.88 67.60Q94.12 71.28 94.20 73.36L94.20 73.36Q93.16 74 92 74.32Q90.84 74.64 89.16 74.64L89.16 74.64Q87.08 74.64 85.52 73.80Q83.96 72.96 83.80 70.64L83.80 70.64Q83.48 65.60 83.24 60.76Q83 55.92 82.84 51.60Q82.68 47.28 82.52 43.64Q82.36 40 82.28 37.36L82.28 37.36L81.88 37.36Q80.60 41.12 78.36 46.92Q76.12 52.72 72.68 61.84Z" fill="#0066cc"></path></svg>